<?xml version="1.0" standalone="no"?>
<!DOCTYPE svg PUBLIC "-//W3C//DTD SVG 20010904//EN"
 "http://www.w3.org/TR/2001/REC-SVG-20010904/DTD/svg10.dtd">
<svg version="1.0" xmlns="http://www.w3.org/2000/svg"
 width="125.000000pt" height="110.000000pt" viewBox="0 0 125.000000 110.000000"
 preserveAspectRatio="xMidYMid meet">

<g transform="translate(0.000000,110.000000) scale(0.100000,-0.100000)"
fill="#000000" stroke="none">
<path d="M100 851 c-14 -27 -14 -605 0 -632 10 -18 24 -19 285 -19 238 0 275
2 275 15 0 13 -36 15 -265 15 l-265 0 0 245 0 245 310 0 310 0 0 -75 c0 -68 2
-75 20 -75 18 0 20 7 20 75 l0 75 65 0 65 0 0 -45 c0 -33 4 -45 15 -45 12 0
15 19 15 108 0 71 -4 112 -12 120 -9 9 -116 12 -420 12 -392 0 -408 -1 -418
-19z m820 -56 l0 -45 -395 0 -395 0 0 45 0 45 395 0 395 0 0 -45z"/>
<path d="M653 814 c-8 -22 10 -49 32 -49 22 0 40 27 32 49 -8 21 -56 21 -64 0z"/>
<path d="M741 811 c-13 -24 8 -55 34 -50 28 6 42 34 26 53 -18 22 -48 20 -60
-3z"/>
<path d="M825 809 c-5 -13 -2 -27 8 -36 24 -24 59 -8 55 25 -4 36 -53 45 -63
11z"/>
<path d="M846 594 c-9 -8 -16 -31 -16 -49 0 -44 -12 -50 -40 -20 -29 31 -60
32 -88 2 -28 -30 -28 -49 3 -85 28 -33 24 -42 -16 -42 -49 0 -59 -9 -59 -54 0
-52 13 -66 62 -66 45 0 47 -8 13 -40 -32 -30 -32 -63 1 -89 34 -27 46 -26 82
4 17 14 33 25 36 25 3 0 6 -17 6 -38 0 -47 14 -62 60 -62 46 0 60 15 60 62 0
21 3 38 6 38 3 0 19 -11 36 -25 37 -31 58 -32 86 -2 29 31 28 58 -3 87 -34 32
-32 38 17 42 53 4 79 39 62 85 -7 22 -16 29 -44 31 -62 5 -66 10 -37 40 33 34
34 62 4 90 -30 29 -58 28 -87 -3 -29 -31 -40 -24 -40 25 0 29 -5 42 -19 50
-29 15 -67 12 -85 -6z m74 -64 c0 -29 5 -42 19 -50 28 -15 36 -13 71 16 29 25
33 26 48 11 15 -15 14 -19 -11 -45 -47 -49 -31 -92 35 -92 34 0 38 -3 38 -25
0 -21 -5 -25 -28 -25 -35 0 -72 -26 -72 -50 0 -10 11 -32 25 -48 24 -28 24
-30 6 -46 -16 -15 -19 -14 -41 9 -44 47 -90 28 -90 -38 0 -36 -2 -38 -27 -35
-24 3 -28 8 -31 38 -2 19 -8 41 -14 47 -17 21 -53 15 -78 -12 -22 -23 -25 -24
-41 -9 -18 16 -18 18 6 46 14 16 25 38 25 48 0 24 -37 50 -72 50 -23 0 -28 4
-28 25 0 22 4 25 38 25 65 0 84 46 37 90 -23 22 -24 25 -9 41 16 18 18 18 46
-6 51 -43 88 -28 88 37 0 36 2 38 30 38 28 0 30 -2 30 -40z"/>
<path d="M855 418 c-32 -17 -45 -39 -45 -78 0 -96 131 -110 163 -18 10 28 -13
78 -44 93 -33 18 -47 18 -74 3z m73 -40 c28 -28 2 -88 -38 -88 -40 0 -66 60
-38 88 7 7 24 12 38 12 14 0 31 -5 38 -12z"/>
<path d="M301 535 c-28 -26 -51 -53 -51 -60 0 -7 23 -34 51 -60 37 -35 54 -44
62 -36 8 8 0 22 -31 54 l-42 43 42 42 c32 31 39 45 31 53 -8 8 -24 -1 -62 -36z"/>
<path d="M402 483 c-26 -116 -26 -113 -8 -113 9 0 19 25 30 73 29 134 30 137
14 137 -10 0 -21 -29 -36 -97z"/>
<path d="M475 570 c-5 -7 9 -29 34 -53 l41 -41 -42 -43 c-63 -64 -36 -74 30
-12 28 28 52 53 51 57 -1 4 -25 29 -54 55 -35 32 -55 44 -60 37z"/>
</g>
</svg>
