<?xml version="1.0" standalone="no"?>
<!DOCTYPE svg PUBLIC "-//W3C//DTD SVG 20010904//EN"
 "http://www.w3.org/TR/2001/REC-SVG-20010904/DTD/svg10.dtd">
<svg version="1.0" xmlns="http://www.w3.org/2000/svg"
 width="200.000000pt" height="200.000000pt" viewBox="0 0 200.000000 200.000000"
 preserveAspectRatio="xMidYMid meet">

<g transform="translate(0.000000,200.000000) scale(0.100000,-0.100000)"
fill="#000000" stroke="none">
<path d="M580 1751 c-11 -8 -14 -44 -15 -193 -1 -101 3 -191 7 -200 8 -16 28
-18 199 -18 l190 0 54 -51 54 -51 3 49 3 48 50 5 50 5 3 194 c2 134 -1 198 -9
207 -9 11 -66 14 -293 14 -154 0 -288 -4 -296 -9z m570 -206 l0 -175 -275 0
-275 0 0 175 0 175 275 0 275 0 0 -175z"/>
<path d="M92 1588 c-8 -8 -12 -64 -12 -185 0 -95 1 -174 3 -175 1 -1 83 -4
182 -7 l180 -6 9 -43 9 -44 21 44 c20 42 22 43 79 49 71 8 83 17 70 56 -7 21
-17 29 -41 31 -50 5 -57 22 -61 164 l-3 128 -212 0 c-152 0 -215 -3 -224 -12z"/>
<path d="M1295 1416 c-43 -19 -66 -49 -72 -95 -3 -23 -10 -41 -14 -41 -14 0
-11 -46 7 -103 26 -80 108 -156 154 -142 10 3 36 25 57 48 51 55 71 137 54
218 -15 68 -34 97 -76 115 -42 17 -71 17 -110 0z"/>
<path d="M405 1081 c-33 -14 -66 -57 -77 -98 -17 -66 -21 -103 -10 -116 5 -6
12 -28 16 -48 11 -59 35 -73 128 -74 74 -1 81 1 97 25 31 45 45 129 31 194
-17 81 -51 117 -116 122 -27 2 -58 0 -69 -5z"/>
<path d="M1175 1006 c-27 -7 -63 -20 -80 -28 -65 -35 -127 -125 -140 -203 -3
-22 -8 -50 -11 -62 l-4 -23 415 0 c472 0 426 -11 404 92 -16 74 -41 120 -90
161 -37 32 -140 77 -176 77 -7 0 -29 -33 -49 -72 l-37 -73 -15 35 c-10 25 -12
42 -5 61 10 26 9 26 -28 25 -44 -1 -43 0 -28 -24 7 -12 6 -28 -4 -57 l-14 -40
-39 72 c-21 40 -41 72 -44 72 -3 0 -27 -6 -55 -13z"/>
<path d="M393 690 c-47 -10 -169 -60 -228 -93 -22 -12 -50 -38 -62 -56 -21
-31 -73 -180 -73 -208 0 -6 21 -18 48 -27 95 -31 188 -41 377 -41 186 0 271 9
381 40 l52 15 -14 67 c-29 139 -91 219 -188 243 -23 6 -66 22 -96 35 -64 28
-138 37 -197 25z"/>
<path d="M824 599 c42 -49 72 -112 88 -180 l11 -49 367 0 366 0 156 128 c86
70 157 130 157 135 1 4 -265 7 -590 7 l-591 0 36 -41z m646 -16 c-1 -8 -87
-80 -143 -120 -28 -20 -43 -23 -139 -23 -59 0 -108 3 -107 8 0 4 39 37 87 74
l87 67 108 1 c59 0 107 -3 107 -7z"/>
</g>
</svg>
