<?xml version="1.0" standalone="no"?>
<!DOCTYPE svg PUBLIC "-//W3C//DTD SVG 20010904//EN"
 "http://www.w3.org/TR/2001/REC-SVG-20010904/DTD/svg10.dtd">
<svg version="1.0" xmlns="http://www.w3.org/2000/svg"
 width="300.000000pt" height="263.000000pt" viewBox="0 0 300.000000 263.000000"
 preserveAspectRatio="xMidYMid meet">

<g transform="translate(0.000000,263.000000) scale(0.100000,-0.100000)"
fill="#000000" stroke="none">
<path d="M1380 2283 c-57 -21 -86 -42 -111 -82 -16 -25 -29 -53 -29 -63 0 -16
-11 -18 -125 -18 l-125 0 0 -405 0 -405 30 0 c28 0 30 -3 30 -35 0 -31 3 -35
25 -35 l25 0 0 -100 0 -100 55 0 55 0 0 -55 c0 -42 3 -55 15 -55 11 0 15 -11
15 -40 0 -33 3 -40 20 -40 17 0 20 7 20 39 0 30 4 40 20 44 17 4 20 14 20 56
l0 51 55 0 55 0 0 100 0 100 25 0 c22 0 25 4 25 35 0 32 2 35 30 35 l30 0 0
405 0 405 -130 0 c-143 0 -145 1 -110 58 27 44 98 76 149 67 76 -14 125 -66
150 -161 24 -91 110 -168 202 -180 l49 -7 0 -263 0 -264 365 0 365 0 0 425 0
425 -365 0 -365 0 0 -140 c0 -156 3 -151 -73 -128 -58 17 -122 82 -137 138
-18 66 -44 113 -84 148 -49 42 -127 63 -176 45z m1140 -298 l0 -185 -305 0
-305 0 0 185 0 185 305 0 305 0 0 -185z m-530 -265 c0 -28 -2 -30 -40 -30 -38
0 -40 2 -40 30 0 28 2 30 40 30 38 0 40 -2 40 -30z m100 0 c0 -28 -3 -30 -35
-30 -32 0 -35 2 -35 30 0 28 3 30 35 30 32 0 35 -2 35 -30z m110 0 c0 -28 -2
-30 -40 -30 -38 0 -40 2 -40 30 0 28 2 30 40 30 38 0 40 -2 40 -30z m110 0 c0
-28 -2 -30 -40 -30 -38 0 -40 2 -40 30 0 28 2 30 40 30 38 0 40 -2 40 -30z
m100 0 c0 -28 -3 -30 -35 -30 -32 0 -35 2 -35 30 0 28 3 30 35 30 32 0 35 -2
35 -30z m110 0 c0 -28 -2 -30 -40 -30 -38 0 -40 2 -40 30 0 28 2 30 40 30 38
0 40 -2 40 -30z m-530 -90 c0 -28 -2 -30 -40 -30 -38 0 -40 2 -40 30 0 28 2
30 40 30 38 0 40 -2 40 -30z m100 0 c0 -28 -3 -30 -35 -30 -32 0 -35 2 -35 30
0 28 3 30 35 30 32 0 35 -2 35 -30z m110 0 c0 -28 -2 -30 -40 -30 -38 0 -40 2
-40 30 0 28 2 30 40 30 38 0 40 -2 40 -30z m110 0 c0 -28 -2 -30 -40 -30 -38
0 -40 2 -40 30 0 28 2 30 40 30 38 0 40 -2 40 -30z m100 0 c0 -28 -3 -30 -35
-30 -32 0 -35 2 -35 30 0 28 3 30 35 30 32 0 35 -2 35 -30z m110 0 c0 -28 -2
-30 -40 -30 -38 0 -40 2 -40 30 0 28 2 30 40 30 38 0 40 -2 40 -30z m-530 -90
c0 -28 -2 -30 -40 -30 -38 0 -40 2 -40 30 0 28 2 30 40 30 38 0 40 -2 40 -30z
m100 0 c0 -28 -3 -30 -35 -30 -32 0 -35 2 -35 30 0 28 3 30 35 30 32 0 35 -2
35 -30z m110 0 c0 -28 -2 -30 -40 -30 -38 0 -40 2 -40 30 0 28 2 30 40 30 38
0 40 -2 40 -30z m110 0 c0 -28 -2 -30 -40 -30 -38 0 -40 2 -40 30 0 28 2 30
40 30 38 0 40 -2 40 -30z m100 0 c0 -28 -3 -30 -35 -30 -32 0 -35 2 -35 30 0
28 3 30 35 30 32 0 35 -2 35 -30z m110 0 c0 -28 -2 -30 -40 -30 -38 0 -40 2
-40 30 0 28 2 30 40 30 38 0 40 -2 40 -30z m-530 -90 c0 -28 -2 -30 -40 -30
-38 0 -40 2 -40 30 0 28 2 30 40 30 38 0 40 -2 40 -30z m100 0 c0 -28 -3 -30
-35 -30 -32 0 -35 2 -35 30 0 28 3 30 35 30 32 0 35 -2 35 -30z m110 0 c0 -28
-2 -30 -40 -30 -38 0 -40 2 -40 30 0 28 2 30 40 30 38 0 40 -2 40 -30z m110 0
c0 -28 -2 -30 -40 -30 -38 0 -40 2 -40 30 0 28 2 30 40 30 38 0 40 -2 40 -30z
m100 0 c0 -28 -3 -30 -35 -30 -32 0 -35 2 -35 30 0 28 3 30 35 30 32 0 35 -2
35 -30z m110 0 c0 -28 -2 -30 -40 -30 -38 0 -40 2 -40 30 0 28 2 30 40 30 38
0 40 -2 40 -30z m-1410 -13 c0 -2 -20 -23 -45 -47 l-45 -44 0 47 0 47 45 0
c25 0 45 -1 45 -3z m155 -47 c-46 -47 -52 -50 -99 -50 l-50 0 49 50 c46 47 52
50 99 50 l50 0 -49 -50z m190 0 c-44 -45 -54 -50 -92 -50 -24 0 -43 3 -43 7 0
4 19 27 42 50 39 39 46 43 92 43 l50 0 -49 -50z"/>
<path d="M530 1120 l0 -720 980 0 980 0 0 450 0 450 -70 0 -70 0 0 -375 0
-375 -840 0 -840 0 0 565 0 565 125 0 125 0 0 80 0 80 -195 0 -195 0 0 -720z"/>
<path d="M1610 1760 l0 -80 90 0 90 0 0 80 0 80 -90 0 -90 0 0 -80z"/>
<path d="M984 1019 c-10 -17 13 -36 27 -22 12 12 4 33 -11 33 -5 0 -12 -5 -16
-11z"/>
<path d="M1514 1019 c-8 -14 11 -33 25 -25 11 7 4 36 -9 36 -5 0 -12 -5 -16
-11z"/>
<path d="M1050 985 c0 -8 7 -15 15 -15 8 0 15 7 15 15 0 8 -7 15 -15 15 -8 0
-15 -7 -15 -15z"/>
<path d="M1450 985 c0 -8 7 -15 15 -15 8 0 15 7 15 15 0 8 -7 15 -15 15 -8 0
-15 -7 -15 -15z"/>
<path d="M1111 956 c-9 -10 -9 -16 -1 -21 17 -10 37 12 24 25 -8 8 -15 6 -23
-4z"/>
<path d="M1396 963 c-12 -12 -6 -33 9 -33 8 0 15 6 15 14 0 17 -14 28 -24 19z"/>
<path d="M1160 905 c0 -8 7 -15 15 -15 8 0 15 7 15 15 0 8 -7 15 -15 15 -8 0
-15 -7 -15 -15z"/>
<path d="M1335 911 c-7 -12 12 -24 25 -16 11 7 4 25 -10 25 -5 0 -11 -4 -15
-9z"/>
<path d="M750 740 l0 -120 760 0 761 0 -3 118 -3 117 -445 3 -446 2 -34 -35
c-28 -29 -41 -35 -75 -35 -34 0 -47 6 -75 35 l-34 35 -203 0 -203 0 0 -120z"/>
</g>
</svg>
