<?xml version="1.0" standalone="no"?>
<!DOCTYPE svg PUBLIC "-//W3C//DTD SVG 20010904//EN"
 "http://www.w3.org/TR/2001/REC-SVG-20010904/DTD/svg10.dtd">
<svg version="1.0" xmlns="http://www.w3.org/2000/svg"
 width="200.000000pt" height="200.000000pt" viewBox="0 0 200.000000 200.000000"
 preserveAspectRatio="xMidYMid meet">

<g transform="translate(0.000000,200.000000) scale(0.100000,-0.100000)"
fill="#000000" stroke="none">
<path d="M270 1722 c-24 -11 -43 -32 -59 -65 -26 -53 -24 -91 9 -144 l20 -33
94 0 c93 0 95 0 120 31 20 24 26 41 26 81 0 116 -107 182 -210 130z"/>
<path d="M900 1455 c0 -247 2 -285 15 -285 12 0 15 -14 15 -65 0 -58 2 -65 20
-65 18 0 20 7 20 65 l0 65 100 0 100 0 0 285 0 285 -135 0 -135 0 0 -285z m68
228 c-2 -10 -10 -18 -18 -18 -8 0 -16 8 -18 18 -2 12 3 17 18 17 15 0 20 -5
18 -17z m170 0 c-2 -10 -10 -18 -18 -18 -8 0 -16 8 -18 18 -2 12 3 17 18 17
15 0 20 -5 18 -17z m-170 -76 c2 -12 -3 -17 -17 -17 -12 0 -21 6 -21 13 0 31
32 34 38 4z m170 0 c2 -12 -3 -17 -17 -17 -12 0 -21 6 -21 13 0 31 32 34 38 4z
m-48 -217 c12 -12 20 -33 20 -55 0 -45 -29 -75 -72 -75 -68 0 -102 78 -56 127
27 29 80 31 108 3z"/>
<path d="M1004 1356 c-12 -31 0 -51 31 -51 27 0 30 3 30 30 0 25 -4 30 -28 33
-17 2 -29 -2 -33 -12z"/>
<path d="M677 1683 c-4 -3 -7 -12 -7 -20 0 -10 23 -13 100 -13 93 0 100 1 100
20 0 19 -7 20 -93 20 -52 0 -97 -3 -100 -7z"/>
<path d="M1200 1670 c0 -19 6 -20 101 -20 90 0 100 2 97 18 -3 14 -17 17 -101
20 -92 3 -97 2 -97 -18z"/>
<path d="M129 1450 c-70 -37 -129 -125 -129 -191 0 -57 73 -149 118 -149 18 0
15 96 -3 124 -12 17 -13 30 -6 49 28 74 31 32 31 -468 l0 -506 25 -24 c15 -16
36 -25 55 -25 19 0 40 9 55 25 l25 24 0 311 c0 269 2 310 15 310 13 0 15 -41
15 -310 l0 -311 25 -24 c32 -33 78 -33 110 0 l25 24 0 405 0 405 43 -19 c52
-24 139 -26 161 -4 19 19 21 58 4 72 -7 5 -37 12 -66 14 -76 7 -83 18 -91 137
-6 87 -11 104 -31 126 -23 25 -25 25 -184 25 -138 -1 -166 -4 -197 -20z"/>
<path d="M725 1094 c-9 -14 -30 -30 -46 -36 -21 -7 -29 -16 -29 -34 0 -24 1
-24 110 -24 l110 0 0 60 0 60 -64 0 c-57 0 -65 -3 -81 -26z"/>
<path d="M1360 1060 l0 -60 110 0 110 0 0 60 0 60 -110 0 -110 0 0 -60z"/>
<path d="M1640 1060 l0 -60 110 0 110 0 0 60 0 60 -110 0 -110 0 0 -60z"/>
<path d="M520 915 l0 -35 740 0 740 0 0 35 0 35 -740 0 -740 0 0 -35z"/>
<path d="M520 585 l0 -265 740 0 740 0 0 265 0 265 -740 0 -740 0 0 -265z
m1340 140 l0 -66 -82 3 -83 3 -3 63 -3 62 86 0 85 0 0 -65z m-910 25 l0 -30
-120 0 -120 0 0 30 0 30 120 0 120 0 0 -30z m350 0 l0 -30 -120 0 -120 0 0 30
0 30 120 0 120 0 0 -30z m540 -210 c0 -68 -1 -70 -25 -70 -24 0 -25 2 -25 70
0 68 1 70 25 70 24 0 25 -2 25 -70z"/>
</g>
</svg>
