<?xml version="1.0" standalone="no"?>
<!DOCTYPE svg PUBLIC "-//W3C//DTD SVG 20010904//EN"
 "http://www.w3.org/TR/2001/REC-SVG-20010904/DTD/svg10.dtd">
<svg version="1.0" xmlns="http://www.w3.org/2000/svg"
 width="231.000000pt" height="168.000000pt" viewBox="0 0 231.000000 168.000000"
 preserveAspectRatio="xMidYMid meet">

<g transform="translate(0.000000,168.000000) scale(0.100000,-0.100000)"
fill="#000000" stroke="none">
<path d="M551 1637 c-14 -6 -29 -25 -34 -41 -21 -62 66 -113 112 -67 30 30 27
75 -5 100 -31 24 -40 25 -73 8z"/>
<path d="M704 1589 c-9 -15 12 -33 30 -26 9 4 16 13 16 22 0 17 -35 21 -46 4z"/>
<path d="M806 1592 c-9 -14 12 -35 28 -29 23 9 20 37 -3 37 -11 0 -22 -4 -25
-8z"/>
<path d="M907 1593 c-9 -8 12 -33 28 -33 14 0 27 25 18 34 -8 8 -38 8 -46 -1z"/>
<path d="M1010 1580 c0 -13 7 -20 20 -20 13 0 20 7 20 20 0 13 -7 20 -20 20
-13 0 -20 -7 -20 -20z"/>
<path d="M1023 1513 c-22 -8 -15 -43 7 -43 13 0 20 7 20 19 0 22 -9 30 -27 24z"/>
<path d="M1352 1496 c-62 -20 -117 -62 -151 -113 -17 -25 -32 -50 -34 -56 -3
-9 -15 -7 -41 6 -47 22 -110 22 -147 0 -34 -20 -69 -85 -69 -129 0 -23 -9 -34
-41 -54 -53 -33 -98 -104 -106 -169 l-6 -51 -274 0 c-309 0 -333 -4 -359 -66
-22 -52 -20 -613 2 -655 24 -48 65 -59 219 -59 l135 0 0 -40 0 -39 -107 -3
c-88 -2 -108 -6 -108 -18 0 -13 46 -15 355 -15 309 0 355 2 355 15 0 12 -19
16 -102 18 l-103 3 0 39 0 40 135 0 c101 0 143 4 165 15 58 30 60 38 60 292
l0 233 263 0 c203 0 275 3 313 15 150 44 223 221 147 357 -17 30 -50 68 -76
88 -41 30 -47 40 -47 71 0 100 -69 208 -164 256 -62 31 -152 39 -214 19z m184
-51 c45 -18 102 -72 125 -117 11 -22 23 -70 26 -107 6 -67 6 -68 49 -94 143
-86 138 -291 -10 -370 -39 -21 -55 -22 -318 -25 l-278 -3 0 63 c0 114 -37 138
-215 138 l-115 0 0 28 c0 34 30 100 59 130 12 12 40 34 62 47 36 24 39 28 39
73 1 50 12 72 47 90 32 18 58 15 113 -13 27 -14 51 -25 54 -25 2 0 17 24 34
53 77 136 199 185 328 132z m-457 -581 c20 -26 21 -38 21 -324 0 -381 19 -348
-203 -352 l-162 -3 -3 -57 -3 -58 -109 0 -109 0 -3 58 -3 57 -161 5 c-116 4
-166 9 -178 19 -14 12 -16 48 -16 327 0 301 1 315 20 334 19 19 33 20 454 20
l435 0 20 -26z"/>
<path d="M225 807 c-3 -7 -4 -131 -3 -277 l3 -265 398 -3 397 -2 0 280 0 280
-395 0 c-310 0 -397 -3 -400 -13z m765 -272 l0 -245 -370 0 -370 0 0 245 0
245 370 0 370 0 0 -245z"/>
<path d="M607 558 c-41 -113 -44 -128 -24 -128 8 0 29 40 50 98 44 121 45 125
27 129 -11 2 -25 -25 -53 -99z"/>
<path d="M457 593 l-58 -56 23 -24 c42 -45 97 -85 109 -78 7 5 -7 25 -37 56
l-48 48 47 42 c46 39 60 69 35 69 -7 0 -39 -26 -71 -57z"/>
<path d="M700 638 c0 -7 21 -33 46 -59 l45 -46 -48 -41 c-36 -31 -45 -44 -36
-53 9 -9 25 0 67 37 31 26 56 53 56 59 0 15 -103 115 -118 115 -7 0 -12 -5
-12 -12z"/>
<path d="M1012 1398 c2 -13 10 -23 18 -23 8 0 16 10 18 23 3 17 -2 22 -18 22
-16 0 -21 -5 -18 -22z"/>
<path d="M276 1366 c-31 -30 -33 -69 -6 -96 60 -60 157 24 103 88 -30 35 -68
38 -97 8z"/>
<path d="M432 1323 c2 -10 12 -18 23 -18 11 0 21 8 23 18 3 13 -3 17 -23 17
-20 0 -26 -4 -23 -17z"/>
<path d="M527 1334 c-11 -11 5 -34 23 -34 18 0 34 23 23 34 -4 3 -14 6 -23 6
-9 0 -19 -3 -23 -6z"/>
<path d="M622 1323 c2 -10 12 -18 23 -18 11 0 21 8 23 18 3 13 -3 17 -23 17
-20 0 -26 -4 -23 -17z"/>
<path d="M720 1325 c0 -21 30 -31 40 -14 11 17 3 29 -21 29 -10 0 -19 -7 -19
-15z"/>
<path d="M812 1323 c4 -22 43 -25 43 -3 0 8 -11 16 -23 18 -19 3 -23 0 -20
-15z"/>
<path d="M822 1208 c2 -12 10 -23 18 -23 22 0 19 39 -3 43 -15 3 -18 -1 -15
-20z"/>
<path d="M1380 645 c0 -20 4 -26 18 -23 9 2 17 12 17 23 0 11 -8 21 -17 23
-14 3 -18 -3 -18 -23z"/>
<path d="M1590 625 c0 -20 4 -26 18 -23 9 2 17 12 17 23 0 11 -8 21 -17 23
-14 3 -18 -3 -18 -23z"/>
<path d="M2086 569 c-52 -41 -25 -119 41 -119 69 0 91 100 28 128 -34 16 -38
15 -69 -9z"/>
<path d="M1380 555 c0 -20 4 -26 18 -23 9 2 17 12 17 23 0 11 -8 21 -17 23
-14 3 -18 -3 -18 -23z"/>
<path d="M1597 534 c-16 -16 -7 -44 14 -44 15 0 20 5 17 22 -3 22 -19 33 -31
22z"/>
<path d="M1682 513 c4 -22 43 -25 43 -3 0 8 -11 16 -23 18 -19 3 -23 0 -20
-15z"/>
<path d="M1775 520 c-9 -15 4 -30 26 -30 12 0 19 7 19 20 0 21 -33 29 -45 10z"/>
<path d="M1872 513 c2 -10 12 -18 23 -18 11 0 21 8 23 18 3 13 -3 17 -23 17
-20 0 -26 -4 -23 -17z"/>
<path d="M1970 510 c0 -23 35 -28 43 -6 7 18 -1 26 -25 26 -11 0 -18 -7 -18
-20z"/>
<path d="M1387 484 c-15 -15 -7 -45 11 -42 9 2 17 12 17 22 0 20 -16 31 -28
20z"/>
<path d="M1384 387 c-3 -9 -3 -25 0 -34 6 -15 8 -15 24 0 15 16 15 18 0 34
-16 15 -18 15 -24 0z"/>
<path d="M1798 333 c-32 -36 -31 -61 1 -93 35 -35 49 -37 85 -9 32 25 36 77 8
102 -24 22 -75 22 -94 0z"/>
<path d="M1380 281 c0 -15 6 -21 21 -21 14 0 19 5 17 17 -5 26 -38 29 -38 4z"/>
<path d="M1475 291 c-9 -16 3 -31 26 -31 14 0 19 6 17 17 -4 20 -33 29 -43 14z"/>
<path d="M1575 291 c-9 -16 3 -31 26 -31 14 0 19 6 17 17 -4 20 -33 29 -43 14z"/>
<path d="M1675 291 c-9 -16 3 -31 26 -31 14 0 19 6 17 17 -4 20 -33 29 -43 14z"/>
</g>
</svg>
