<?xml version="1.0" standalone="no"?>
<!DOCTYPE svg PUBLIC "-//W3C//DTD SVG 20010904//EN"
 "http://www.w3.org/TR/2001/REC-SVG-20010904/DTD/svg10.dtd">
<svg version="1.0" xmlns="http://www.w3.org/2000/svg"
 width="119.000000pt" height="119.000000pt" viewBox="0 0 119.000000 119.000000"
 preserveAspectRatio="xMidYMid meet">

<g transform="translate(0.000000,119.000000) scale(0.100000,-0.100000)"
fill="#000000" stroke="none">
<path d="M452 1170 c-228 -61 -375 -212 -434 -442 -59 -236 47 -499 255 -632
186 -119 442 -123 631 -9 276 167 366 540 199 817 -46 75 -124 153 -199 198
-130 79 -312 106 -452 68z m249 -64 c99 -21 184 -69 261 -146 208 -208 207
-523 -1 -731 -209 -209 -523 -209 -732 0 -208 208 -209 523 -1 731 132 132
297 183 473 146z"/>
<path d="M337 842 l-57 -58 0 -222 0 -222 40 0 c36 0 40 -2 40 -25 l0 -25 235
0 235 0 0 25 c0 23 4 25 40 25 l40 0 0 280 0 280 -258 0 -258 0 -57 -58z m529
-17 c-5 -14 -9 -15 -21 -5 -12 10 -13 16 -4 27 15 18 34 1 25 -22z m-372 -70
c8 -8 32 -15 55 -15 38 0 42 -3 73 -55 31 -51 36 -54 71 -55 28 0 44 6 56 22
35 43 98 -2 71 -52 -13 -23 -47 -26 -74 -5 -11 8 -40 15 -65 15 -44 0 -47 2
-76 50 -25 43 -33 50 -61 50 -17 0 -37 -7 -44 -16 -19 -22 -71 -14 -81 12 -16
46 40 83 75 49z m228 -9 c14 -21 8 -55 -12 -66 -41 -22 -80 13 -65 59 9 30 59
34 77 7z m-147 -92 c21 -21 16 -53 -10 -70 -18 -12 -24 -11 -43 2 -26 18 -29
59 -4 73 24 15 38 13 57 -5z m-75 -99 c8 -9 29 -15 55 -15 29 0 45 5 49 15 3
9 18 15 36 15 42 0 62 -40 35 -70 -23 -25 -47 -25 -70 0 -12 13 -31 20 -55 20
-24 0 -43 -7 -55 -20 -24 -27 -51 -25 -70 4 -13 19 -14 29 -5 45 13 25 61 28
80 6z m-145 -155 c0 -8 -8 -16 -17 -18 -13 -2 -18 3 -18 18 0 15 5 20 18 18 9
-2 17 -10 17 -18z m515 0 c0 -21 -24 -28 -35 -10 -8 14 3 30 21 30 8 0 14 -9
14 -20z m-380 -60 c0 -27 -3 -30 -30 -30 -27 0 -30 3 -30 30 0 27 3 30 30 30
27 0 30 -3 30 -30z m90 0 c0 -27 -3 -30 -30 -30 -27 0 -30 3 -30 30 0 27 3 30
30 30 27 0 30 -3 30 -30z m90 0 c0 -27 -3 -30 -30 -30 -27 0 -30 3 -30 30 0
27 3 30 30 30 27 0 30 -3 30 -30z m90 0 c0 -27 -3 -30 -30 -30 -27 0 -30 3
-30 30 0 27 3 30 30 30 27 0 30 -3 30 -30z"/>
<path d="M444 729 c-8 -14 11 -33 25 -25 16 10 13 36 -3 36 -8 0 -18 -5 -22
-11z"/>
<path d="M767 633 c-13 -12 -7 -23 13 -23 11 0 20 7 20 15 0 15 -21 21 -33 8z"/>
<path d="M670 720 c0 -11 7 -20 15 -20 8 0 15 9 15 20 0 11 -7 20 -15 20 -8 0
-15 -9 -15 -20z"/>
<path d="M532 624 c4 -21 22 -23 26 -1 2 10 -3 17 -13 17 -10 0 -15 -6 -13
-16z"/>
<path d="M444 539 c-10 -17 13 -36 27 -22 12 12 4 33 -11 33 -5 0 -12 -5 -16
-11z"/>
<path d="M624 539 c-10 -17 13 -36 27 -22 12 12 4 33 -11 33 -5 0 -12 -5 -16
-11z"/>
</g>
</svg>
